<svg xmlns="http://www.w3.org/2000/svg" viewBox="0 0 297 297"><path d="M293.697 128.583L155.329 3.913a9.989 9.989 0 00-13.366-.007L3.31 128.576a9.991 9.991 0 006.68 17.419h31.52v139.671c0 5.517 4.473 9.989 9.99 9.989h194.278c5.517 0 9.99-4.473 9.99-9.989V145.995h31.241a9.99 9.99 0 006.688-17.412zM235.79 275.677H61.49V140.482l87.152-77.674 87.147 77.674v135.195zm13.795-149.661L155.29 41.97a9.987 9.987 0 00-13.293-.001l-94.3 84.047H36.043l112.594-101.24L261 126.016h-11.415z"/><path d="M138.662 142.777v46.719c0 5.517 4.474 9.989 9.99 9.989s9.989-4.473 9.989-9.989v-46.719c0-5.517-4.473-9.989-9.989-9.989s-9.99 4.473-9.99 9.989z"/><path d="M168.676 158.735c10.433 6.817 16.66 18.316 16.66 30.761 0 20.253-16.457 36.731-36.685 36.731-20.223 0-36.675-16.479-36.675-36.731 0-12.444 6.228-23.943 16.659-30.761 4.619-3.019 5.917-9.208 2.898-13.826-3.017-4.619-9.207-5.918-13.827-2.898-16.099 10.52-25.71 28.271-25.71 47.485 0 31.27 25.415 56.711 56.654 56.711 31.245 0 56.664-25.44 56.664-56.711 0-19.215-9.612-36.966-25.712-47.485-4.617-3.02-10.809-1.719-13.826 2.898-3.017 4.618-1.719 10.809 2.9 13.826z"/></svg>